<svg style="width: 100%; height:300px" xmlns="http://www.w3.org/2000/svg" xmlns:xlink="http://www.w3.org/1999/xlink">
        <ellipse cx="210" cy="220" rx="50" ry="18" fill="gray"/>
        <circle cx="200" cy="140" r="70" fill="orange" />
        <circle cx="190" cy="130" r="30" fill="white" />
        <circle cx="230" cy="130" r="30" fill="white" />
        <circle cx="200" cy="130" r="7" fill="black" />
        <circle cx="240" cy="130" r="7" fill="black" />
        <circle cx="215" cy="155" r="10" fill="black" />
        <ellipse cx="200" cy="180" rx="13" ry="7" fill="red"/>
        <polygon points="155,86 165,60 185,73" fill="orange" />
        <polygon points="158,86 167,65 181,73" fill="black" />
        <polygon points="210,72 230,60 240,85" fill="orange" />
        <polygon points="215,72 228,64 237,83" fill="black" />
        <ellipse cx="130" cy="140" rx="50" ry="18" fill="orange" transform="rotate(10)"/>
        <polygon points="55,150 85,145 82,172" fill="white" />
        <ellipse cx="400" cy="220" rx="50" ry="18" fill="gray"/>
        <circle cx="400" cy="140" r="70" fill="yellow" />
        <circle cx="370" cy="130" r="30" fill="white" />
        <circle cx="410" cy="130" r="30" fill="white" />
        <circle cx="360" cy="130" r="7" fill="black" />
        <circle cx="400" cy="130" r="7" fill="black" />
        <ellipse cx="390" cy="180" rx="7" ry="13" fill="red"/>
    </svg>